<svg width="54" height="53" fill="none" xmlns="http://www.w3.org/2000/svg"><path d="M54 20.503H28.836v12.44H54v-12.44z" fill="#B70F33"/><path d="M33.345 37.838a13.239 13.239 0 0 1-7.455 2.295 12.788 12.788 0 0 1-5.128-.955 13.144 13.144 0 0 1-4.37-2.935 13.667 13.667 0 0 1-2.929-4.459 14.046 14.046 0 0 1-1.03-5.284c0-1.815.35-3.611 1.03-5.284a13.667 13.667 0 0 1 2.929-4.459 13.144 13.144 0 0 1 4.37-2.936 12.788 12.788 0 0 1 5.128-.954 13.24 13.24 0 0 1 7.455 2.295h15.938c-2.124-4.55-5.446-8.386-9.585-11.068A25.3 25.3 0 0 0 25.89 0C11.618 0 0 11.888 0 26.497 0 41.107 11.613 53 25.89 53a25.3 25.3 0 0 0 13.808-4.094c4.139-2.682 7.461-6.518 9.585-11.068H33.345z" fill="#B70F33"/></svg>