<svg width="30" height="28" fill="none" xmlns="http://www.w3.org/2000/svg"><path d="M7.263.415h-3.79V2.31h2.211l3.79 10.42h1.894l3.79-10.42h1.895V.415h-3.474L10.42 9.573 7.263.415zM2.21 25.678H0v1.895h2.21v-1.895zM4.421 27.573v-1.895h1.895v-8.21H4.42v-1.895h3.79v2.21c1.7-1.753 2.562-2.426 6-2.21v3.474H12v-1.895s-1.263-.011-2.21.936c-.704.703-1.264 2.222-1.264 2.222v5.368h5.369v1.895H4.42zM20.526 15.573h-4.105v1.895h1.895v6.409s.31 1.636.947 2.433c3.158 3.474 7.263.316 7.263-.632 0-.631.316 1.895.316 1.895H30v-1.895h-1.579V15.573H24v1.895h2.21s-.046 4.844 0 6.316c-.947 2.842-5.623 2.555-5.684 0v-8.211zM26.842 4.836v-2.21c-.206.017-6.095-2.736-6.726 4.211.184 2.26 1.618 3.915 3.884 4 1.49.054 3.474-1.58 3.474-1.58l1.579 1.263S26.206 13.047 24 13.047c-3.488 0-6.23-2.829-6.316-6.316C17.597 3.156 20.352.11 24 .099c3.474-.01 4.737 1.58 4.737 1.58v3.157h-1.895z" fill="#fff"/></svg>