<svg width="34" height="12" fill="none" xmlns="http://www.w3.org/2000/svg"><path d="M2.513 4.631a2.546 2.546 0 0 1 2.06-1.048l.19.007h-.008c1.573 0 2.793 1.1 2.793 2.922v5.17H5.035V7.4c0-.931-.482-1.447-1.244-1.447-.7 0-1.278.482-1.278 1.495v4.234H0V.107h2.513v4.524zm14.642 7.051h-2.412v-.853a2.704 2.704 0 0 1-2.15 1.064l-.122-.003h.006c-2.103 0-3.66-1.832-3.66-4.157 0-2.324 1.557-4.143 3.67-4.143l.105-.002c.875 0 1.653.417 2.147 1.062l.004.006v-.848h2.412v7.874zm-5.788-3.945a1.688 1.688 0 1 0 3.376 0 1.688 1.688 0 0 0-3.376 0zm15.853-.005c0 2.325-1.563 4.158-3.665 4.158l-.126.003c-.867 0-1.637-.411-2.127-1.049l-.005-.006v.844h-2.411V.107h2.508V4.56a2.674 2.674 0 0 1 2.06-.967l.12.002h-.006c2.089-.005 3.651 1.818 3.651 4.138zm-5.947 0a1.688 1.688 0 1 0 3.376 0 1.688 1.688 0 0 0-3.376 0zM33.976 3.71l-.217 2.503a4.162 4.162 0 0 0-1.255-.207H32.5a1.273 1.273 0 0 0-1.446 1.424v-.006 4.259h-2.518V3.807h2.411v.907a2.327 2.327 0 0 1 1.994-1.129l.165.006h-.008.009c.31 0 .609.044.892.126l-.022-.006h-.002z" fill="#fff"/></svg>