<svg width="28" height="20" fill="none" xmlns="http://www.w3.org/2000/svg"><path d="M1.227 1h3.272v6.955s1.35-1.966 3.887-1.841c4.5 0 4.295 5.113 4.295 5.113V19H9.408v-7.773s0-2.454-1.84-2.659c-2.864-.409-3.069 2.455-3.069 2.455V19H1.227V1zM15.318 1h3.272v6.955s1.35-1.966 3.887-1.841c4.5 0 4.295 5.113 4.295 5.113V19h-3.273v-7.773s0-2.454-1.84-2.659c-2.864-.409-3.069 2.455-3.069 2.455V19h-3.272V1z" fill="#fff"/><path d="M4.5 7.955V1H1.226v18h3.272v-7.977m0-3.068v3.068m0-3.068s1.35-1.966 3.887-1.841c4.5 0 4.295 5.113 4.295 5.113V19H9.408v-7.773s0-2.454-1.84-2.659c-2.864-.409-3.069 2.455-3.069 2.455M18.59 7.955V1h-3.272v18h3.272v-7.977m0-3.068v3.068m0-3.068s1.35-1.966 3.887-1.841c4.5 0 4.295 5.113 4.295 5.113V19h-3.273v-7.773s0-2.454-1.84-2.659c-2.864-.409-3.069 2.455-3.069 2.455" stroke="#fff"/></svg>